<svg width="24" height="24" viewBox="0 0 24 24" fill="none" xmlns="http://www.w3.org/2000/svg">
    <circle cx="12" cy="12" r="11.5" stroke="currentColor"/>
    <path fill-rule="evenodd" clip-rule="evenodd" d="M12 23.9944C12.083 23.9981 12.1664 24 12.25 24C16.7143 24 20.3333 18.6274 20.3333 12C20.3333 5.37258 16.7143 0 12.25 0C12.1664 0 12.083 0.0018857 12 0.00563002V23.9944ZM19.3333 12C19.3333 15.1417 18.4737 17.9412 17.1363 19.9266C16.3451 21.1013 15.413 21.9595 14.4123 22.4659C15.7578 20.4094 16.6666 16.4931 16.6666 12C16.6666 7.50693 15.7578 3.59061 14.4123 1.53412C15.413 2.04051 16.3451 2.89873 17.1363 4.0734C18.4737 6.05877 19.3333 8.85828 19.3333 12ZM13.2148 1.59946C13.1402 1.5138 13.0686 1.43971 13 1.37576V22.6242C13.0686 22.5603 13.1402 22.4862 13.2148 22.4005C13.6349 21.9178 14.0587 21.1613 14.4346 20.1399C15.1835 18.105 15.6666 15.2273 15.6666 12C15.6666 8.77267 15.1835 5.89496 14.4346 3.86012C14.0587 2.83875 13.6349 2.08223 13.2148 1.59946Z" fill="currentColor"/>
</svg>
