<svg width="24" height="24" viewBox="0 0 24 24" fill="none" xmlns="http://www.w3.org/2000/svg">
    <path d="M11.6464 0.146447C11.8417 -0.0488155 12.1583 -0.0488155 12.3536 0.146447L17.3536 5.14645C17.5488 5.34171 17.5488 5.65829 17.3536 5.85355C17.1583 6.04882 16.8417 6.04882 16.6464 5.85355L12 1.20711L7.35355 5.85355C7.15829 6.04882 6.84171 6.04882 6.64645 5.85355C6.45118 5.65829 6.45118 5.34171 6.64645 5.14645L11.6464 0.146447Z" fill="currentColor"/>
    <path d="M12 0C12.2761 0 12.5 0.223858 12.5 0.5V23.5C12.5 23.7761 12.2761 24 12 24C11.7239 24 11.5 23.7761 11.5 23.5V0.5C11.5 0.223858 11.7239 0 12 0Z" fill="currentColor"/>
</svg>
