<svg xmlns="http://www.w3.org/2000/svg" viewBox="0 0 24 24">
    <path fill="currentColor" d="M9.22 3.44a9 9 0 1 0 5.56 17.12A9 9 0 0 0 9.22 3.44Zm8.32 2.8s.2.93-.09 1.24c-.29.31-4.26 3-4.26 3a1.001 1.001 0 0 1-.86.19.791.791 0 0 1-.51-.38l-2.18-6a8 8 0 0 1 7.9 1.95Zm-4.95 5.57a.619.619 0 1 1-.78-.4.63.63 0 0 1 .78.4ZM8.24 5c.07 0 .94.11 1.15.47.21.36 1.61 4.94 1.61 4.94a1 1 0 0 1-.08.88.769.769 0 0 1-.52.36l-6.4.23A8 8 0 0 1 8.24 5Zm-3.85 9.47a9.813 9.813 0 0 1-.26-1.07c0-.08.4-.87.8-1s5.23.05 5.23.05a1.05 1.05 0 0 1 .84.4.78.78 0 0 1 .18.61l-1.74 6.1a8 8 0 0 1-5.05-5.09Zm10.08 5.14a7.94 7.94 0 0 1-3.57.3c-.08-.06-.7-.64-.66-1.05.04-.41 1.66-5 1.66-5a1.079 1.079 0 0 1 .59-.67.77.77 0 0 1 .64 0l5.26 3.54a7.91 7.91 0 0 1-3.92 2.88Zm4.71-4.12c-.08 0-.83.47-1.2.3-.37-.17-4.2-3.11-4.2-3.11a1.082 1.082 0 0 1-.46-.77.85.85 0 0 1 .21-.6l5-3.92a8.25 8.25 0 0 1 1.07 2.14 8 8 0 0 1-.42 5.96Z"/>
</svg>