<svg xmlns="http://www.w3.org/2000/svg" viewBox="0 0 24 24">
    <path fill-rule="evenodd" clip-rule="evenodd" fill="currentColor" d="M12.5745 3.01804C12.4465 3.00607 12.3175 3 12.1875 3C12.1623 3 12.1372 3.00023 12.112 3.00068C12.0747 3.00023 12.0374 3 12 3C7.02944 3 3 7.02944 3 12C3 16.9706 7.02944 21 12 21C12.0374 21 12.0747 20.9998 12.112 20.9993C12.1372 20.9998 12.1623 21 12.1875 21C12.3175 21 12.4465 20.9939 12.5745 20.982C17.2773 20.6857 21 16.7776 21 12C21 7.2224 17.2773 3.31427 12.5745 3.01804ZM12 20.25V3.75C7.44365 3.75 3.75 7.44365 3.75 12C3.75 16.5563 7.44365 20.25 12 20.25ZM15.6276 19.4117C18.3652 18.0693 20.25 15.2548 20.25 12C20.25 8.74524 18.3652 5.93069 15.6276 4.58826C17.2118 6.21185 18.2499 8.92594 18.2499 12C18.2499 15.0741 17.2118 17.7881 15.6276 19.4117ZM15.8523 17.945C16.8553 16.4559 17.4999 14.3563 17.4999 12C17.4999 9.64371 16.8553 7.54407 15.8523 6.05505C15.2588 5.17405 14.5597 4.53038 13.8092 4.15059C14.8183 5.69296 15.5 8.6302 15.5 12C15.5 15.3698 14.8183 18.307 13.8092 19.8494C14.5597 19.4696 15.2588 18.8259 15.8523 17.945ZM12.75 4.03182C12.8015 4.07978 12.8552 4.13535 12.9111 4.19959C13.2261 4.56167 13.544 5.12906 13.8259 5.89509C14.3876 7.42122 14.75 9.5795 14.75 12C14.75 14.4205 14.3876 16.5788 13.8259 18.1049C13.544 18.8709 13.2261 19.4383 12.9111 19.8004C12.8552 19.8646 12.8015 19.9202 12.75 19.9682V4.03182Z"/>
</svg>
